[ConversionWorker] Logging FFmpeg output to: ffmpeg_logs\ffmpeg_conversion_黄蓉01_wav_20250525_174753.log\n[ConversionWorker] Getting duration with command: ffprobe -v error -show_entries format=duration -of default=noprint_wrappers=1:nokey=1 Z:\Story\黄蓉\黄蓉01.wav\n[ConversionWorker] Duration for 黄蓉01.wav: 4278405 ms\n[ConversionWorker] Starting FFmpeg for 黄蓉01.wav: ffmpeg -i Z:\Story\黄蓉\黄蓉01.wav -b:a 128k -vn -y -loglevel error -stats -progress pipe:1 Z:\Story\黄蓉\黄蓉01.mp3\n[ConversionWorker] FFmpeg process started. PID: 18328\n[STDOUT RAW] bitrate= 124.1kbits/s\n[STDOUT RAW] total_size=84524\n[STDOUT RAW] out_time_us=5449958\n[STDOUT RAW] out_time_ms=5449958\n[STDOUT RAW] out_time=00:00:05.449958\n[STDOUT RAW] dup_frames=0\n[STDOUT RAW] drop_frames=0\n[STDOUT RAW] speed=10.6x\n[STDOUT RAW] progress=continue\n[STDOUT RAW] bitrate= 126.0kbits/s\n[STDOUT RAW] total_size=168620\n[STDOUT RAW] out_time_us=10705958\n[STDOUT RAW] out_time_ms=10705958\n[STDOUT RAW] out_time=00:00:10.705958\n[STDOUT RAW] dup_frames=0\n[STDOUT RAW] drop_frames=0\n[STDOUT RAW] speed=10.4x\n[STDOUT RAW] progress=continue\n[STDERR RAW] size=      83KiB time=00:00:05.44 bitrate= 124.1kbits/s speed=10.6x\n[STDERR RAW] size=     165KiB time=00:00:10.70 bitrate= 126.0kbits/s speed=10.4x\n[STDOUT RAW] bitrate= 126.7kbits/s\n[STDOUT RAW] total_size=251180\n[STDOUT RAW] out_time_us=15865958\n[STDOUT RAW] out_time_ms=15865958\n[STDOUT RAW] out_time=00:00:15.865958\n[STDOUT RAW] dup_frames=0\n[STDOUT RAW] drop_frames=0\n[STDOUT RAW] speed=10.2x\n[STDOUT RAW] progress=continue\n[STDERR RAW] size=     245KiB time=00:00:15.86 bitrate= 126.7kbits/s speed=10.2x\n[STDOUT RAW] bitrate= 124.4kbits/s\n[STDOUT RAW] total_size=1835008\n[STDOUT RAW] out_time_us=117961958\n[STDOUT RAW] out_time_ms=117961958\n[STDOUT RAW] out_time=00:01:57.961958\n[STDOUT RAW] dup_frames=0\n[STDOUT RAW] drop_frames=0\n[STDOUT RAW] speed=57.1x\n[STDOUT RAW] progress=continue\n[STDERR RAW] size=    1792KiB time=00:01:57.96 bitrate= 124.4kbits/s speed=57.1x\n[STDOUT RAW] bitrate= 125.8kbits/s\n[STDOUT RAW] total_size=3670016\n[STDOUT RAW] out_time_us=233377958\n[STDOUT RAW] out_time_ms=233377958\n[STDOUT RAW] out_time=00:03:53.377958\n[STDOUT RAW] dup_frames=0\n[STDOUT RAW] drop_frames=0\n[STDOUT RAW] speed=90.4x\n[STDOUT RAW] progress=continue\n[STDOUT RAW] bitrate= 123.3kbits/s\n[STDOUT RAW] total_size=5242880\n[STDOUT RAW] out_time_us=340225958\n[STDERR RAW] size=    3584KiB time=00:03:53.37 bitrate= 125.8kbits/s speed=90.4x\n[STDOUT RAW] out_time_ms=340225958\n[STDOUT RAW] out_time=00:05:40.225958\n[STDOUT RAW] dup_frames=0\n[STDOUT RAW] drop_frames=0\n[STDOUT RAW] speed= 110x\n[STDOUT RAW] progress=continue\n[STDERR RAW] size=    5120KiB time=00:05:40.22 bitrate= 123.3kbits/s speed= 110x\n[STDOUT RAW] bitrate= 127.7kbits/s\n[STDOUT RAW] total_size=7077888\n[STDOUT RAW] out_time_us=443305958\n[STDOUT RAW] out_time_ms=443305958\n[STDOUT RAW] out_time=00:07:23.305958\n[STDOUT RAW] dup_frames=0\n[STDOUT RAW] drop_frames=0\n[STDOUT RAW] speed= 123x\n[STDOUT RAW] progress=continue\n[STDERR RAW] size=    6912KiB time=00:07:23.30 bitrate= 127.7kbits/s speed= 123x\n[STDOUT RAW] bitrate= 126.1kbits/s\n[STDOUT RAW] total_size=8650752\n[STDOUT RAW] out_time_us=548617958\n[STDOUT RAW] out_time_ms=548617958\n[STDOUT RAW] out_time=00:09:08.617958\n[STDOUT RAW] dup_frames=0\n[STDOUT RAW] drop_frames=0\n[STDOUT RAW] speed= 133x\n[STDOUT RAW] progress=continue\n[STDERR RAW] size=    8448KiB time=00:09:08.61 bitrate= 126.1kbits/s speed= 133x\n[STDOUT RAW] bitrate= 126.7kbits/s\n[STDOUT RAW] total_size=10485760\n[STDOUT RAW] out_time_us=662281958\n[STDOUT RAW] out_time_ms=662281958\n[STDOUT RAW] out_time=00:11:02.281958\n[STDOUT RAW] dup_frames=0\n[STDOUT RAW] drop_frames=0\n[STDOUT RAW] speed= 142x\n[STDOUT RAW] progress=continue\n[STDERR RAW] size=   10240KiB time=00:11:02.28 bitrate= 126.7kbits/s speed= 142x\n[STDOUT RAW] bitrate= 125.3kbits/s\n[STDOUT RAW] total_size=12058624\n[STDOUT RAW] out_time_us=770185958\n[STDOUT RAW] out_time_ms=770185958\n[STDOUT RAW] out_time=00:12:50.185958\n[STDOUT RAW] dup_frames=0\n[STDOUT RAW] drop_frames=0\n[STDOUT RAW] speed= 149x\n[STDOUT RAW] progress=continue\n[STDERR RAW] size=   11776KiB time=00:12:50.18 bitrate= 125.3kbits/s speed= 149x\n[STDOUT RAW] bitrate= 127.6kbits/s\n[STDOUT RAW] total_size=13893632\n[STDOUT RAW] out_time_us=871129958\n[STDOUT RAW] out_time_ms=871129958\n[STDOUT RAW] out_time=00:14:31.129958\n[STDOUT RAW] dup_frames=0\n[STDOUT RAW] drop_frames=0\n[STDOUT RAW] speed= 153x\n[STDOUT RAW] progress=continue\n[STDERR RAW] size=   13568KiB time=00:14:31.12 bitrate= 127.6kbits/s speed= 153x\n[STDOUT RAW] bitrate= 126.6kbits/s\n[STDOUT RAW] total_size=15466496\n[STDOUT RAW] out_time_us=977113958\n[STDOUT RAW] out_time_ms=977113958\n[STDOUT RAW] out_time=00:16:17.113958\n[STDOUT RAW] dup_frames=0\n[STDOUT RAW] drop_frames=0\n[STDOUT RAW] speed= 158x\n[STDOUT RAW] progress=continue\n[STDERR RAW] size=   15104KiB time=00:16:17.11 bitrate= 126.6kbits/s speed= 158x\n[STDOUT RAW] bitrate= 126.7kbits/s\n[STDOUT RAW] total_size=17039360\n[STDOUT RAW] out_time_us=1075945958\n[STDOUT RAW] out_time_ms=1075945958\n[STDOUT RAW] out_time=00:17:55.945958\n[STDOUT RAW] dup_frames=0\n[STDOUT RAW] drop_frames=0\n[STDOUT RAW] speed= 160x\n[STDOUT RAW] progress=continue\n[STDERR RAW] size=   16640KiB time=00:17:55.94 bitrate= 126.7kbits/s speed= 160x\n[STDOUT RAW] bitrate= 127.5kbits/s\n[STDOUT RAW] total_size=18612224\n[STDOUT RAW] out_time_us=1167793958\n[STDOUT RAW] out_time_ms=1167793958\n[STDOUT RAW] out_time=00:19:27.793958\n[STDOUT RAW] dup_frames=0\n[STDOUT RAW] drop_frames=0\n[STDOUT RAW] speed= 162x\n[STDOUT RAW] progress=continue\n[STDERR RAW] size=   18176KiB time=00:19:27.79 bitrate= 127.5kbits/s speed= 162x\n[STDOUT RAW] bitrate= 127.6kbits/s\n[STDOUT RAW] total_size=20185088\n[STDOUT RAW] out_time_us=1265953958\n[STDOUT RAW] out_time_ms=1265953958\n[STDOUT RAW] out_time=00:21:05.953958\n[STDOUT RAW] dup_frames=0\n[STDOUT RAW] drop_frames=0\n[STDOUT RAW] speed= 164x\n[STDOUT RAW] progress=continue\n[STDERR RAW] size=   19712KiB time=00:21:05.95 bitrate= 127.6kbits/s speed= 164x\n[STDOUT RAW] bitrate= 126.5kbits/s\n[STDOUT RAW] total_size=21495808\n[STDOUT RAW] out_time_us=1359073958\n[STDOUT RAW] out_time_ms=1359073958\n[STDOUT RAW] out_time=00:22:39.073958\n[STDOUT RAW] dup_frames=0\n[STDOUT RAW] drop_frames=0\n[STDOUT RAW] speed= 165x\n[STDOUT RAW] progress=continue\n[STDERR RAW] size=   20992KiB time=00:22:39.07 bitrate= 126.5kbits/s speed= 165x\n[STDOUT RAW] bitrate= 127.0kbits/s\n[STDOUT RAW] total_size=23068672\n[STDOUT RAW] out_time_us=1453585958\n[STDOUT RAW] out_time_ms=1453585958\n[STDOUT RAW] out_time=00:24:13.585958\n[STDOUT RAW] dup_frames=0\n[STDOUT RAW] drop_frames=0\n[STDOUT RAW] speed= 166x\n[STDOUT RAW] progress=continue\n[STDERR RAW] size=   22528KiB time=00:24:13.58 bitrate= 127.0kbits/s speed= 166x\n[STDOUT RAW] bitrate= 127.3kbits/s\n[STDOUT RAW] total_size=24641536\n[STDOUT RAW] out_time_us=1548913958\n[STDOUT RAW] out_time_ms=1548913958\n[STDOUT RAW] out_time=00:25:48.913958\n[STDOUT RAW] dup_frames=0\n[STDOUT RAW] drop_frames=0\n[STDOUT RAW] speed= 167x\n[STDOUT RAW] progress=continue\n[STDERR RAW] size=   24064KiB time=00:25:48.91 bitrate= 127.3kbits/s speed= 167x\n[STDOUT RAW] bitrate= 127.6kbits/s\n[STDOUT RAW] total_size=26214400\n[STDOUT RAW] out_time_us=1643641958\n[STDOUT RAW] out_time_ms=1643641958\n[STDOUT RAW] out_time=00:27:23.641958\n[STDOUT RAW] dup_frames=0\n[STDOUT RAW] drop_frames=0\n[STDOUT RAW] speed= 168x\n[STDOUT RAW] progress=continue\n[STDERR RAW] size=   25600KiB time=00:27:23.64 bitrate= 127.6kbits/s speed= 168x\n[STDOUT RAW] bitrate= 127.8kbits/s\n[STDOUT RAW] total_size=27787264\n[STDOUT RAW] out_time_us=1738897958\n[STDOUT RAW] out_time_ms=1738897958\n[STDOUT RAW] out_time=00:28:58.897958\n[STDOUT RAW] dup_frames=0\n[STDOUT RAW] drop_frames=0\n[STDOUT RAW] speed= 169x\n[STDOUT RAW] progress=continue\n[STDERR RAW] size=   27136KiB time=00:28:58.89 bitrate= 127.8kbits/s speed= 169x\n[STDOUT RAW] bitrate= 126.9kbits/s\n[STDOUT RAW] total_size=29097984\n[STDOUT RAW] out_time_us=1834249958\n[STDOUT RAW] out_time_ms=1834249958\n[STDOUT RAW] out_time=00:30:34.249958\n[STDOUT RAW] dup_frames=0\n[STDOUT RAW] drop_frames=0\n[STDOUT RAW] speed= 169x\n[STDOUT RAW] progress=continue\n[STDERR RAW] size=   28416KiB time=00:30:34.24 bitrate= 126.9kbits/s speed= 169x\n[STDOUT RAW] bitrate= 127.3kbits/s\n[STDOUT RAW] total_size=30670848\n[STDOUT RAW] out_time_us=1927729958\n[STDOUT RAW] out_time_ms=1927729958\n[STDOUT RAW] out_time=00:32:07.729958\n[STDOUT RAW] dup_frames=0\n[STDOUT RAW] drop_frames=0\n[STDOUT RAW] speed= 170x\n[STDOUT RAW] progress=continue\n[STDERR RAW] size=   29952KiB time=00:32:07.72 bitrate= 127.3kbits/s speed= 170x\n[STDOUT RAW] bitrate= 127.1kbits/s\n[STDOUT RAW] total_size=32243712\n[STDOUT RAW] out_time_us=2029273958\n[STDOUT RAW] out_time_ms=2029273958\n[STDOUT RAW] out_time=00:33:49.273958\n[STDOUT RAW] dup_frames=0\n[STDOUT RAW] drop_frames=0\n[STDOUT RAW] speed= 171x\n[STDOUT RAW] progress=continue\n[STDERR RAW] size=   31488KiB time=00:33:49.27 bitrate= 127.1kbits/s speed= 171x\n[STDOUT RAW] bitrate= 127.8kbits/s\n[STDOUT RAW] total_size=34078720\n[STDOUT RAW] out_time_us=2133649958\n[STDOUT RAW] out_time_ms=2133649958\n[STDOUT RAW] out_time=00:35:33.649958\n[STDOUT RAW] dup_frames=0\n[STDOUT RAW] drop_frames=0\n[STDOUT RAW] speed= 172x\n[STDOUT RAW] progress=continue\n[STDERR RAW] size=   33280KiB time=00:35:33.64 bitrate= 127.8kbits/s speed= 172x\n[STDOUT RAW] bitrate= 127.4kbits/s\n[STDOUT RAW] total_size=35651584\n[STDOUT RAW] out_time_us=2239321958\n[STDOUT RAW] out_time_ms=2239321958\n[STDOUT RAW] out_time=00:37:19.321958\n[STDOUT RAW] dup_frames=0\n[STDOUT RAW] drop_frames=0\n[STDOUT RAW] speed= 174x\n[STDOUT RAW] progress=continue\n[STDERR RAW] size=   34816KiB time=00:37:19.32 bitrate= 127.4kbits/s speed= 174x\n[STDOUT RAW] bitrate= 127.8kbits/s\n[STDOUT RAW] total_size=37224448\n[STDOUT RAW] out_time_us=2329825958\n[STDOUT RAW] out_time_ms=2329825958\n[STDOUT RAW] out_time=00:38:49.825958\n[STDOUT RAW] dup_frames=0\n[STDOUT RAW] drop_frames=0\n[STDOUT RAW] speed= 173x\n[STDOUT RAW] progress=continue\n[STDOUT RAW] bitrate= 127.1kbits/s\n[STDERR RAW] size=   36352KiB time=00:38:49.82 bitrate= 127.8kbits/s speed= 173x\n[STDOUT RAW] total_size=38535168\n[STDOUT RAW] out_time_us=2424961958\n[STDOUT RAW] out_time_ms=2424961958\n[STDOUT RAW] out_time=00:40:24.961958\n[STDOUT RAW] dup_frames=0\n[STDOUT RAW] drop_frames=0\n[STDOUT RAW] speed= 174x\n[STDOUT RAW] progress=continue\n[STDERR RAW] size=   37632KiB time=00:40:24.96 bitrate= 127.1kbits/s speed= 174x\n[STDOUT RAW] bitrate= 127.2kbits/s\n[STDOUT RAW] total_size=40108032\n[STDOUT RAW] out_time_us=2523265958\n[STDOUT RAW] out_time_ms=2523265958\n[STDOUT RAW] out_time=00:42:03.265958\n[STDOUT RAW] dup_frames=0\n[STDOUT RAW] drop_frames=0\n[STDOUT RAW] speed= 175x\n[STDOUT RAW] progress=continue\n[STDERR RAW] size=   39168KiB time=00:42:03.26 bitrate= 127.2kbits/s speed= 175x\n[STDOUT RAW] bitrate= 127.8kbits/s\n[STDOUT RAW] total_size=41943040\n[STDOUT RAW] out_time_us=2626441958\n[STDOUT RAW] out_time_ms=2626441958\n[STDOUT RAW] out_time=00:43:46.441958\n[STDOUT RAW] dup_frames=0\n[STDOUT RAW] drop_frames=0\n[STDOUT RAW] speed= 175x\n[STDOUT RAW] progress=continue\n[STDERR RAW] size=   40960KiB time=00:43:46.44 bitrate= 127.8kbits/s speed= 175x\n[STDOUT RAW] bitrate= 127.3kbits/s\n[STDOUT RAW] total_size=43515904\n[STDOUT RAW] out_time_us=2734393958\n[STDOUT RAW] out_time_ms=2734393958\n[STDOUT RAW] out_time=00:45:34.393958\n[STDOUT RAW] dup_frames=0\n[STDOUT RAW] drop_frames=0\n[STDOUT RAW] speed= 177x\n[STDOUT RAW] progress=continue\n[STDERR RAW] size=   42496KiB time=00:45:34.39 bitrate= 127.3kbits/s speed= 177x\n[STDOUT RAW] bitrate= 127.8kbits/s\n[STDOUT RAW] total_size=45350912\n[STDOUT RAW] out_time_us=2837905958\n[STDOUT RAW] out_time_ms=2837905958\n[STDOUT RAW] out_time=00:47:17.905958\n[STDOUT RAW] dup_frames=0\n[STDOUT RAW] drop_frames=0\n[STDOUT RAW] speed= 177x\n[STDOUT RAW] progress=continue\n[STDERR RAW] size=   44288KiB time=00:47:17.90 bitrate= 127.8kbits/s speed= 177x\n[STDOUT RAW] bitrate= 127.3kbits/s\n[STDOUT RAW] total_size=46923776\n[STDOUT RAW] out_time_us=2949241958\n[STDOUT RAW] out_time_ms=2949241958\n[STDOUT RAW] out_time=00:49:09.241958\n[STDOUT RAW] dup_frames=0\n[STDOUT RAW] drop_frames=0\n[STDOUT RAW] speed= 179x\n[STDOUT RAW] progress=continue\n[STDERR RAW] size=   45824KiB time=00:49:09.24 bitrate= 127.3kbits/s speed= 179x\n[STDOUT RAW] bitrate= 127.6kbits/s\n[STDOUT RAW] total_size=48758784\n[STDOUT RAW] out_time_us=3056881958\n[STDOUT RAW] out_time_ms=3056881958\n[STDOUT RAW] out_time=00:50:56.881958\n[STDOUT RAW] dup_frames=0\n[STDOUT RAW] drop_frames=0\n[STDOUT RAW] speed= 180x\n[STDOUT RAW] progress=continue\n[STDERR RAW] size=   47616KiB time=00:50:56.88 bitrate= 127.6kbits/s speed= 180x\n[STDOUT RAW] bitrate= 127.9kbits/s\n[STDOUT RAW] total_size=50593792\n[STDOUT RAW] out_time_us=3163993958\n[STDOUT RAW] out_time_ms=3163993958\n[STDOUT RAW] out_time=00:52:43.993958\n[STDOUT RAW] dup_frames=0\n[STDOUT RAW] drop_frames=0\n[STDOUT RAW] speed= 180x\n[STDOUT RAW] progress=continue\n[STDERR RAW] size=   49408KiB time=00:52:43.99 bitrate= 127.9kbits/s speed= 180x\n[STDOUT RAW] bitrate= 127.6kbits/s\n[STDOUT RAW] total_size=52166656\n[STDOUT RAW] out_time_us=3270025958\n[STDOUT RAW] out_time_ms=3270025958\n[STDOUT RAW] out_time=00:54:30.025958\n[STDOUT RAW] dup_frames=0\n[STDOUT RAW] drop_frames=0\n[STDOUT RAW] speed= 181x\n[STDOUT RAW] progress=continue\n[STDERR RAW] size=   50944KiB time=00:54:30.02 bitrate= 127.6kbits/s speed= 181x\n[STDOUT RAW] bitrate= 128.0kbits/s\n[STDOUT RAW] total_size=54001664\n[STDOUT RAW] out_time_us=3375793958\n[STDOUT RAW] out_time_ms=3375793958\n[STDOUT RAW] out_time=00:56:15.793958\n[STDOUT RAW] dup_frames=0\n[STDOUT RAW] drop_frames=0\n[STDOUT RAW] speed= 182x\n[STDOUT RAW] progress=continue\n[STDERR RAW] size=   52736KiB time=00:56:15.79 bitrate= 128.0kbits/s speed= 182x\n[STDOUT RAW] bitrate= 127.9kbits/s\n[STDOUT RAW] total_size=55574528\n[STDOUT RAW] out_time_us=3476737958\n[STDOUT RAW] out_time_ms=3476737958\n[STDOUT RAW] out_time=00:57:56.737958\n[STDOUT RAW] dup_frames=0\n[STDOUT RAW] drop_frames=0\n[STDOUT RAW] speed= 182x\n[STDOUT RAW] progress=continue\n[STDERR RAW] size=   54272KiB time=00:57:56.73 bitrate= 127.9kbits/s speed= 182x\n[STDOUT RAW] bitrate= 127.7kbits/s\n[STDOUT RAW] total_size=57147392\n[STDOUT RAW] out_time_us=3581401958\n[STDOUT RAW] out_time_ms=3581401958\n[STDOUT RAW] out_time=00:59:41.401958\n[STDOUT RAW] dup_frames=0\n[STDOUT RAW] drop_frames=0\n[STDOUT RAW] speed= 183x\n[STDOUT RAW] progress=continue\n[STDERR RAW] size=   55808KiB time=00:59:41.40 bitrate= 127.7kbits/s speed= 183x\n[STDOUT RAW] bitrate= 128.0kbits/s\n[STDOUT RAW] total_size=58982400\n[STDOUT RAW] out_time_us=3686833958\n[STDOUT RAW] out_time_ms=3686833958\n[STDOUT RAW] out_time=01:01:26.833958\n[STDOUT RAW] dup_frames=0\n[STDOUT RAW] drop_frames=0\n[STDOUT RAW] speed= 183x\n[STDOUT RAW] progress=continue\n[STDERR RAW] size=   57600KiB time=01:01:26.83 bitrate= 128.0kbits/s speed= 183x\n[STDOUT RAW] bitrate= 127.7kbits/s\n[STDOUT RAW] total_size=60555264\n[STDOUT RAW] out_time_us=3792553958\n[STDOUT RAW] out_time_ms=3792553958\n[STDOUT RAW] out_time=01:03:12.553958\n[STDOUT RAW] dup_frames=0\n[STDOUT RAW] drop_frames=0\n[STDOUT RAW] speed= 184x\n[STDOUT RAW] progress=continue\n[STDERR RAW] size=   59136KiB time=01:03:12.55 bitrate= 127.7kbits/s speed= 184x\n[STDOUT RAW] bitrate= 127.8kbits/s\n[STDOUT RAW] total_size=62390272\n[STDOUT RAW] out_time_us=3904033958\n[STDOUT RAW] out_time_ms=3904033958\n[STDOUT RAW] out_time=01:05:04.033958\n[STDOUT RAW] dup_frames=0\n[STDOUT RAW] drop_frames=0\n[STDOUT RAW] speed= 185x\n[STDOUT RAW] progress=continue\n[STDERR RAW] size=   60928KiB time=01:05:04.03 bitrate= 127.8kbits/s speed= 185x\n[STDOUT RAW] bitrate= 128.0kbits/s\n[STDOUT RAW] total_size=64225280\n[STDOUT RAW] out_time_us=4015273958\n[STDOUT RAW] out_time_ms=4015273958\n[STDOUT RAW] out_time=01:06:55.273958\n[STDOUT RAW] dup_frames=0\n[STDOUT RAW] drop_frames=0\n[STDOUT RAW] speed= 185x\n[STDOUT RAW] progress=continue\n[STDERR RAW] size=   62720KiB time=01:06:55.27 bitrate= 128.0kbits/s speed= 185x\n[STDOUT RAW] bitrate= 127.5kbits/s\n[STDOUT RAW] total_size=65798144\n[STDOUT RAW] out_time_us=4128625958\n[STDOUT RAW] out_time_ms=4128625958\n[STDOUT RAW] out_time=01:08:48.625958\n[STDOUT RAW] dup_frames=0\n[STDOUT RAW] drop_frames=0\n[STDOUT RAW] speed= 186x\n[STDOUT RAW] progress=continue\n[STDERR RAW] size=   64256KiB time=01:08:48.62 bitrate= 127.5kbits/s speed= 186x\n[STDOUT RAW] bitrate= 127.7kbits/s\n[STDOUT RAW] total_size=67633152\n[STDOUT RAW] out_time_us=4237225958\n[STDOUT RAW] out_time_ms=4237225958\n[STDOUT RAW] out_time=01:10:37.225958\n[STDOUT RAW] dup_frames=0\n[STDOUT RAW] drop_frames=0\n[STDOUT RAW] speed= 187x\n[STDOUT RAW] progress=continue\n[STDERR RAW] size=   66048KiB time=01:10:37.22 bitrate= 127.7kbits/s speed= 187x\n[STDERR RAW] size=   66851KiB time=01:11:18.40 bitrate= 128.0kbits/s speed= 187x\n[STDOUT RAW] bitrate= 128.0kbits/s\n[STDOUT RAW] total_size=68455724\n[STDOUT RAW] out_time_us=4278405333\n[STDOUT RAW] out_time_ms=4278405333\n[STDOUT RAW] out_time=01:11:18.405333\n[STDOUT RAW] dup_frames=0\n[STDOUT RAW] drop_frames=0\n[STDOUT RAW] speed= 187x\n[STDOUT RAW] progress=end\n[ConversionWorker] STDERR pipe closed signal received.\n[ConversionWorker] Detected 'progress=end' for 黄蓉01.wav\n[ConversionWorker] STDOUT pipe closed signal received.\n[ConversionWorker] Process finished and both stream pipes closed. Exiting loop.\n[ConversionWorker] Waiting for reader threads to join...\n[ConversionWorker] FFmpeg process ended. Return code: 0\n[ConversionWorker] Closing FFmpeg log file.\n